/* XPM */
static char *_ab2d48321994610cc94639716c96d23ZDZh06mue50xRoNe[] = {
/* columns rows colors chars-per-pixel */
"63 62 13 1 ",
"  c #00001C",
". c #00004C",
"X c #000088",
"o c #00007C",
"O c #000058",
"+ c #000070",
"@ c #000064",
"# c #000034",
"$ c #00002C",
"% c #000098",
"& c #0000A8",
"* c #0000B0",
"= c white",
/* pixels */
"   .XXXXXXXXXXXXooooXoXoXoXoXoXO   .XXXXXXXXXXXXooooXoXoXoXoXoX",
"   .XXoXXXooXooooooooXoXoXoooXoO   .XXoXXXooXooooooooXoXoXoooXo",
"   .ooXooXXooo+oooooXoXoXoooo+oO   .ooXooXXooo+oooooXoXoXoooo+o",
"   .oXooooXoo+o+XooXoooXoXoX+o+O   .oXooooXoo+o+XooXoooXoXoX+o+",
"   .ooXooooo+o+XoXo+oooo+oX+o++O   .ooXooooo+o+XoXo+oooo+oX+o++",
"   .oooXooo+o+o+X+X++o+o++++++oO   .oooXooo+o+o+X+X++o+o++++++o",
"   .oo+o+++++o+o++++++o+X++oo++O   .oo+o+++++o+o++++++o+X++oo++",
"   .+@o@++++@+o++@+o+o@+++@++@+O   .+@o@++++@+o++@+o+o@+++@++@+",
"   .+O@+@O+@+@+@@+@@+@+++@+O@+@O   .+O@+@O+@+@+@@+@@+@+++@+O@+@",
"   .OOO@O@O+O+@O+@O@O@O@O+O@O+@O   .OOO@O@O+O+@O+@O@O@O@O+O@O+@",
"   .@O@O@@@O@OO+@@@O@O@O@O@O@OOO   .@O@O@@@O@OO+@@@O@O@O@O@O@OO",
"   ###$                     $###   ###$                     $##",
"                                                               ",
"                                                               ",
"                                                               ",
"XXX%%XX%%%&&&&&&&&&&&&%%%%XXXXXX%%XXXXX%%%&&&&&&&&&&&&%%%%XX%%X",
"ooXooXXooo+oooooXoXoXoooo+ooXooXXoooooXooXXooo+oooooXoXoXoooo+o",
"oXooooXoo+o+XooXoooXoXoX+ooXooooXoo+oXooooXoo+o+XooXoooXoXoX+o+",
"ooXooooo+o+XoXo+oooo+oX+o+ooXooooo+oooXooooo+o+XoXo+oooo+oX+o++",
"oooXooo+o+o+X+X++o+o++++++oooXooo+o+oooXooo+o+o+X+X++o+o++++++o",
"                                                               ",
"                          #.O@+++@O.#                          ",
".......................##.@+o%***%o+@.##.......................",
".......................#.O+oX%&&&%Xo+O.#.......................",
"......................#.#.+XXX%%%XXX+.#.#......................",
"......................###.@XXXX&XXXX@.###......................",
"......................#$#.O@XX%&%XX@O.#$#......................",
"...................... $#@+oX%&&&%Xo+@#$ ......................",
"......................  @OO.#$OoO$#.OO@  ......................",
"...................... $+     #o#     +$ ......................",
"...................... #X     #o#     X# ......................",
"...................... O+.  #+OoO+#  .+O ......................",
"...................... Oo%%%%%#o#%%%%%oO ......................",
"...................... .+%%XXX o XXX%%+. ......................",
"......................  .@XooO % OooX@.  ......................",
"......................   #XXo. % .oXX#   ......................",
"......................$   @+Xo%%%oX+@   $......................",
"......................#$  O+X%***%X+O  $#......................",
".......................#$ .@O$   $O@. $#.......................",
"........................#$#@$     $@#$#........................",
".........................#$$       $$#.........................",
"..........................  $$$$$$$  ..........................",
"XXX%%XX%%%&&&&&&&&&&&&%%%%XXXXXX%%XXXXX%%%&&&&&&&&&&&&%%%%XX%%X",
"ooXooXXooo+oooooXoXoXoooo+ooXooXXooo+ooXooXXooo+oooooXoXoXoooo+",
"oXooooXoo+o+XooXoooXoXoX+ooXooooXoo+ooXooooXoo+o+XooXoooXoXoX+o",
"ooXooooo+o+XoXo+oooo+oX+o+ooXooooo+o+ooXooooo+o+XoXo+oooo+oX+o+",
"oooXooo+o+o+X+X++o+o++++++oooXooo+o+ooooXooo+o+o+X+X++o+o++++++",
"                                                               ",
"                                                               ",
"                                                               ",
"%%%%%%%%%%%Xo+@   @+oX%%%%%%%%%%%%%%%%%%%%%Xo+@   @+oX%%%%%%%%%",
"oooXoXoXoXoXoXO   .XXXXXXXXXXXXooooXoXoXoXoXoXO   .XXXXXXXXXXoo",
"ooooXoXoXoooXoO   .XXoXXXooXooooooooXoXoXoooXoO   .XXoXXXoooooo",
"oooXoXoXoooo+oO   .ooXooXXooo+oooooXoXoXoooo+oO   .ooXooXXo+ooo",
"ooXoooXoXoX+o+O   .oXooooXoo+o+XooXoooXoXoX+o+O   .oXooooXoo+Xo",
"Xo+oooo+oX+o++O   .ooXooooo+o+XoXo+oooo+oX+o++O   .ooXooooo+XoX",
"+X++o+o++++++oO   .oooXooo+o+o+X+X++o+o++++++oO   .oooXooo+o+X+",
"+++++o+X++oo++O   .oo+o+++++o+o++++++o+X++oo++O   .oo+o+++++o++",
"@+o+o@+++@++@+O   .+@o@++++@+o++@+o+o@+++@++@+O   .+@o@++++o++@",
"+@@+@+++@+O@+@O   .+O@+@O+@+@+@@+@@+@+++@+O@+@O   .+O@+@O+@+@@+",
"@O@O@O@O+O@O+@O   .OOO@O@O+O+@O+@O@O@O@O+O@O+@O   .OOO@O@O+@O+@",
"@@O@O@O@O@O@OOO   .@O@O@@@O@OO+@@@O@O@O@O@O@OOO   .@O@O@@@OO+@@"
};
