/* XPM */
static char *b46e058fc2a7425ec04f352df63d1ffdEvOUFDE45Mjt8Hf1[] = {
/* columns rows colors chars-per-pixel */
"64 64 16 1 ",
"  c gray11",
". c #202020",
"X c #282828",
"o c #2C2C2C",
"O c #00007C",
"+ c #000088",
"@ c #000098",
"# c #0000A4",
"$ c #0000A8",
"% c #0000B0",
"& c #0000BC",
"* c #0000C8",
"= c #0000D4",
"- c #0000E0",
"; c #0000EC",
": c #2024FC",
/* pixels */
"oooooooooooooooooooooooooooooooooooooooooooooooooooooooooooooooo",
":::::::::::::=Xoo::::::::::::::::::::::::::::=Xoo:::::::::::::::",
"&&@&&@&@*@*%@O.oo:&@#&$$%@*%$@*@$@#*%%@&*@$%=O.oo:@%@%@%@&@+&@#@",
"*@&$@$&;@%*$&O.oo:@@%@$$%%@%***@$&%@@*@&&&&@%O.oo:@%+%@%&%&*@&%-",
"=@@$@*&%@$&&@O.oo:%&%%*%$%%$$@@**%&@+@@%@$@*%O.oo:$+*++*@@&&@@@$",
"@@@@#&@@$@&@*O.oo:&@%%@@&@&=$*&@%@%@@+%@@@$@%O.oo:@%@@@@&%&&%&&&",
"**%=%$&$%$&=&O.oo:*%&**&$&&@@*@&$+&$$@@$@$+$%O.oo:@@*@&$*=-&=:&=",
"&&$@-$&%@*@@*O.oo:%&&&&&%@$*%@O$+@@$+@$@$$@@@O.oo:%&&&@*==$--@&=",
"OOOOOOOOOOOOOO.oo=OOOOOOOOOOOOOOOOOOOOOOOOOOOO.oo=OOOOOOOOOOOOOO",
"               oo                              oo               ",
"XXXXXXXXXXXXXXXooXXXXXXXXXXXXXXXXXXXXXXXXXXXXXXoXXXXXXXXXXXXXXXX",
"o::::::::::::::::::::::::::::=Xoo::::::::::::::::::::::::::::=Xo",
"o:@@@@@@@@%@&@@@@@@$$@@@*@%%@O.oo:&&-:==$-$@$*$;@*%=%@-&&&%&&O.o",
"o:$@@@+&&@&@&%@&@$$$$%@%&$%%=O.oo:%:*=%$@@=-$%$%&&@%=&%%%@&%@O.o",
"o:&%*@&&%$&%&@@%%%&@%%&@@&$*&O.oo:*&$$$%@&&$%%&*&&@&$@@@$***&O.o",
"o:=--&$---*--&*-=*&$@%&=$%*-:O.oo:&=@%%=%@&@&%&%&&&&$&&&*%*%@O.o",
"o:-*&--&=-&=@$@-&=---:%:*:=%@O.oo:=%&@%@@@@%&@@&&@&@&=&-&&$=&O.o",
"o:&--=&-&=%*=-=*%@@$&:*-*:=&@O.oo:&=%-@&=%*$@$-%&=&*--%:$:&:*O.o",
"o:-&=****%%$-&$-&*%$*;*&--&%=O.oo:$--*&@*@@*@=*-:::---*::-&::O.o",
"o=OOOOOOOOOOOOOOOOOOOOOOOOOOOO.oo=OOOOOOOOOOOOOOOOOOOOOOOOOOOO.o",
"o                              oo                              o",
"oXXXXXXXXXXXXXXXXXXXXXXXXXXXXXXooXXXXXXXXXXXXXXXXXXXXXXXXXXXXXXo",
":::::::::::::=Xoo::::::::::::::::::::::::::::=Xoo:::::::::::::::",
"=-&:=:*;=&&&%O.oo:$*%&$;*:*-&&*%--=-$&@-%-=*$O.oo:@@&%=%*&@%*&*=",
":$@=&---&==--O.oo:&-:::--%%*==-&%&&@@&*@$=%@&O.oo:@%$&&-&$&&&%*$",
"====*:---=$&&O.oo:--$*&%&*$&&**-%&&***%&@&@@@O.oo:@--&%**%$%&-$&",
"-:$%*::&&&*&&O.oo:&@***&-%&*%=-&$**@=@==$%&&&O.oo:*-%**&$$%&@$&@",
"&&=*=-*@@@@*&O.oo:=%*%&@&&%-=%&=&&*&=&%*%*@&*O.oo:$*$@@@%@%@*@@+",
"$-@*=-@@@*$%&O.oo:*=%**&%-$-%*@*$*&@&%%&@$&*$O.oo:$*$@*@+%@$+&O%",
"@%&*&&$$&@&$*O.oo:$&%@*&=%@@$&@@&&@&*=@$==%-&O.oo:@&%@@@@@%$@@@&",
"OOOOOOOOOOOOOO.oo=OOOOOOOOOOOOOOOOOOOOOOOOOOOO.oo=OOOOOOOOOOOOOO",
"               oo                              oo               ",
"XXXXXXXXXXXXXXXooXXXXXXXXXXXXXXXXXXXXXXXXXXXXXXooXXXXXXXXXXXXXXX",
"o::::::::::::::::::::::::::::=Xoo::::::::::::::::::::::::::::=Xo",
"o:*&*=&*-@&$--&**$=**@-&=&&$@O.oo:&$&@@*@@@@@OO@@%@@*&$*%%*$*O.o",
"o:*@*=*;*=--&&&=&*@*==&*%*&*&O.oo:*&%@@&@+%$$@@@%@@&#-$%%@%-&O.o",
"o:%*&@*%*&*$&*%&==&&&&&=%@&%&O.oo:%%%$&%@@@@@@%-@*&&@%$*-*$&%O.o",
"o:&%$&*&&@=*$*=;-==%=@*$@@@=@O.oo:@@@@@&%**$%$@@%&%*@@@%&%%$@O.o",
"o:@$$%%&$%-==-%*&*%$&%%$@=$$+O.oo:@$@##@@&=%*=@%&%&%&-@&&=&%@O.o",
"o:%*@*&&*=$*$&&@@&%&&%%&$%@@@O.oo:&@#$*=%*&%-%==$=%$%=&&*@&=$O.o",
"o:&@&=&;=-&&@*$%&=@=%+$@+@@%@O.oo:%&$*%@=&%&%*&-%@&*&&*@%-&@=O.o",
"o=OOOOOOOOOOOOOOOOOOOOOOOOOOOO.oo=OOOOOOOOOOOOOOOOOOOOOOOOOOOO.o",
"o                              oo                              o",
"oXXXXXXXXXXXXXXXXXXXXXXXXXXXXXXooXXXXXXXXXXXXXXXXXXXXXXXXXXXXXXo",
":::::::::::::=Xoo::::::::::::::::::::::::::::=Xoo:::::::::::::::",
"@&@-@%$@@%@+@O.oo:$@%*-&&&@-:%-=-*@&&@%@@@&-$O.oo:@=&@@%%*@&%%%-",
"&@@@&=+$++@%+O.oo:@@&&@-*&&&%$@&*@$%@@=@=-@-%O.oo:***&*&=-$@&@*@",
"*=%:=&@$*$%@%O.oo:@&-%==&-:%:=$%-&@$@%%#&@@&@O.oo:@@$$**-*&&:-&*",
"*=---&-::*-**O.oo::*=*:-*&**&&*@@@$@&@@&$@@$&O.oo:%@**:-$&=;;%&;",
"=-&=&**=%-&&%O.oo:=:*-*-:*&%*&@-$@O@@%+@+@%&&O.oo:=-:$%*-@@&=$*-",
"&*%&&;:*%*&*-O.oo:-*=-&&@%&$*@@+@&O@@$@&&--%:O.oo:%@&@@&&%@@$@&*",
"&%@*=%&&*-*:%O.oo:**%%$&&@@$O$@@@%@@@%@-=&-%@O.oo:@$%*@&&@&$&-%%",
"OOOOOOOOOOOOOO.oo=OOOOOOOOOOOOOOOOOOOOOOOOOOOO.oo=OOOOOOOOOOOOOO",
"               oo                              oo               ",
"XXXXXXXXXXXXXXXooXXXXXXXXXXXXXXXXXXXXXXXXXXXXXXooXXXXXXXXXXXXXXX",
"o::::::::::::::::::::::::::::=Xoo::::::::::::::::::::::::::::=Xo",
"o:%+$@@&+%*@@@@@&@@@@&@*$%$@@O.oo:*&&%@$@@@$@@*@%&$@@$@$%@@%%O.o",
"o:$@%@+*$*@@@&@@&%@%$@$@&*%&-O.oo:@%%&&@+&@&**$&&%@%&%*@%@%$$O.o",
"o:@&&%@O@@*-%#*$&%*%@*$&*-::=O.oo:%$$&&%@@&%@&=@$#*&&$@@@$#$&O.o",
"o:&@$$@@@&%$=%%%@&%*:-:-%-=&$O.oo:*@&@@%&$@@@@@@@$@%@%&&&&&%&O.o",
"o:$&&@%*@&&$&$@=:&&&-$=$*$$*$O.oo:@&%&$=&$*-&&%@$%%@+$**$&%$@O.o",
"o:$$@%$@@$@$$%&&&&&&&$=$&%&&-O.oo:@*&&&%%%$@&*$@@&%&$@+%@@&$@O.o",
"o=OOOOOOOOOOOOOOOOOOOOOOOOOOOO.oo=OOOOOOOOOOOOOOOOOOOOOOOOOOOO.o",
"o                              oo                              o"
};
